<svg id="Layer_2" data-name="Layer 2" xmlns="http://www.w3.org/2000/svg" viewBox="0 0 762.19 153.32"><defs><style>.cls-1{fill:#6bcbb8;}.cls-2{fill:#479896;}.cls-3{fill:#989898;}</style></defs><path class="cls-1" d="M342.81,332.34H324.74V295.87l-16.15,24.92v.11h-10v-.11l-16.26-25.13.11,36.68H264.31V259.62h13.48l25.77,38.82,25.78-38.82h13.47Z" transform="translate(-68.22 -219.98)"/><path class="cls-1" d="M409.23,311.49h-36.9c1.39,4.7,5,8.34,11.66,8.34,3.64,0,6.42-1.39,7.91-3.74h17.22c-2.56,10.69-12.51,17.43-25.34,17.43-17,0-28.35-11.34-28.35-27.17s11-27.06,27.7-27.06c15,0,26.42,10.38,26.42,26A40.33,40.33,0,0,1,409.23,311.49Zm-37-10.16H393.3c-1-5.67-4.71-8.67-10.27-8.67C377.15,292.66,373.51,296.09,372.23,301.33Z" transform="translate(-68.22 -219.98)"/><path class="cls-1" d="M476.72,332.34H459.39v-2.67a25.63,25.63,0,0,1-14.22,3.95c-14,0-25.78-11.65-25.78-27.16s11.77-26.95,25.78-26.95a25.63,25.63,0,0,1,14.22,4V256.41h17.33Zm-17.33-17.75V298.44a13.7,13.7,0,0,0-10.69-4.81c-7.06,0-12.3,5.77-12.3,12.83,0,7.27,5.24,12.94,12.3,12.94A13.38,13.38,0,0,0,459.39,314.59Z" transform="translate(-68.22 -219.98)"/><path class="cls-2" d="M546,302.18h18.61C562.28,321,548,333.84,528.16,333.84c-21.92,0-38.5-15.94-38.5-37.86s16.58-37.86,38.5-37.86c19.79,0,34.12,12.83,36.47,31.66H546c-1.92-9.09-8.34-14.76-18-14.76-11.87,0-20.1,8.87-20.1,21s8.23,21,20.1,21C537.68,316.94,544.1,311.27,546,302.18Z" transform="translate(-68.22 -219.98)"/><path class="cls-2" d="M631.05,302.72v29.62H613.72V305.5c0-7.38-3.74-10.91-9.52-10.91-3.1,0-6.41,1.71-9.41,5.13v32.62H577.36V256.41h17.43v27.48a22.46,22.46,0,0,1,14.23-5C622.06,278.87,631.05,288,631.05,302.72Z" transform="translate(-68.22 -219.98)"/><path class="cls-2" d="M695.75,311.49H658.86c1.39,4.7,5,8.34,11.65,8.34,3.64,0,6.42-1.39,7.92-3.74h17.22c-2.57,10.69-12.52,17.43-25.35,17.43-17,0-28.34-11.34-28.34-27.17s11-27.06,27.7-27.06c15,0,26.42,10.38,26.42,26A39.12,39.12,0,0,1,695.75,311.49Zm-37-10.16h21.07c-1-5.67-4.71-8.67-10.27-8.67C663.67,292.66,660,296.09,658.75,301.33Z" transform="translate(-68.22 -219.98)"/><path class="cls-2" d="M744.52,311.06h16.37c-1.29,13.37-12.3,22.46-26.63,22.46-16.26,0-28.34-11.34-28.34-27.17s12.08-27.06,28.34-27.06c14.33,0,25.34,9.1,26.63,22.46H744.52c-.85-4.7-4.92-7.8-10.16-7.8-7.48,0-11.87,5.34-11.87,12.4s4.39,12.52,11.87,12.52C739.6,318.87,743.67,315.76,744.52,311.06Z" transform="translate(-68.22 -219.98)"/><path class="cls-2" d="M790.09,322.07v10.27H772.65V256.41h17.44v43.42l18-19.36H828.7L809,301.65l21.39,30.69H809.66l-12.41-18Z" transform="translate(-68.22 -219.98)"/><path class="cls-3" d="M175.41,372.71c-5.82,1.8-12.72-1-16.8-2.62l-.29-.12c-29.07-12.82-58.9-28.07-81.17-53.08-12.66-14.23-10.35-35.18-2.44-49.62,9.19-16.78,24.69-25.64,40.45-23.12a5.06,5.06,0,0,1-1.59,10c-13.65-2.18-24.44,7.86-30,18-6.2,11.33-8.26,27.48,1.13,38,21,23.57,49.66,38.19,77.54,50.49l.14.06c6.23,2.51,8.92,2.74,10,2.38-.49-1-2.07-3.07-7-6.95l-.62-.48c-14.87-11.93-31.49-21.12-47.57-30-13.61-7.53-21.31-15.36-23.56-24-1.49-5.73-.48-11.49,3-17.13,6.21-10,18.59-11.29,27.61-7.37,8,3.48,14.65,11.88,21.71,20.78,12.36,15.59,21.32,25.41,32.69,20.13,4.65-2.16,4.56-5.86,1.93-15.89-.38-1.46-.74-2.88-1-4.22a5.06,5.06,0,0,1,9.88-2.17c.27,1.22.6,2.5,1,3.82,2.11,8.06,5.64,21.55-7.47,27.63-19.46,9-33.55-8.74-44.87-23-6-7.53-12.15-15.32-17.81-17.79-4.91-2.13-11.83-1.66-15,3.43-2,3.23-2.6,6.26-1.82,9.25,1.48,5.69,7.77,11.63,18.67,17.66,16.44,9.09,33.45,18.5,49,31l.55.44c5.65,4.46,10.9,9.38,11,15.16a9.08,9.08,0,0,1-3.25,7.13A11,11,0,0,1,175.41,372.71Z" transform="translate(-68.22 -219.98)"/><path class="cls-3" d="M184.86,298.1c-.42.13-.86.25-1.31.36a20.65,20.65,0,1,1,1.31-.36Zm-9.24-29.77a10.53,10.53,0,0,0-2.38,19A10.54,10.54,0,0,0,189,275.93a10.55,10.55,0,0,0-12.7-7.79Z" transform="translate(-68.22 -219.98)"/><path class="cls-3" d="M179.15,370.75a5.05,5.05,0,0,1-5.58-7.81,285,285,0,0,0,27.56-48.69c10-23.22,18.21-54.52.75-71.76l-.17-.17C194,234,186.15,229.88,178.3,230.1c-11.83.34-20.06,10.21-20.14,10.31a5.06,5.06,0,1,1-7.82-6.41c.45-.56,11.28-13.54,27.67-14,10.87-.31,21.32,4.86,31.06,15.39,40.25,39.95-24.55,129.72-27.34,133.53A5,5,0,0,1,179.15,370.75Z" transform="translate(-68.22 -219.98)"/><path class="cls-1" d="M126.63,251.33A7,7,0,0,1,122,260h0a7,7,0,0,1-8.69-4.59h0a6.94,6.94,0,0,1,4.58-8.69h0a6.94,6.94,0,0,1,8.7,4.58Z" transform="translate(-68.22 -219.98)"/><path class="cls-1" d="M123.29,264.06a11.17,11.17,0,1,1,7.37-14A11.19,11.19,0,0,1,123.29,264.06Zm-4.11-13.29a2.74,2.74,0,1,0,3.43,1.81A2.74,2.74,0,0,0,119.18,250.77Z" transform="translate(-68.22 -219.98)"/><path class="cls-1" d="M156.16,241.75a7,7,0,0,1-4.59,8.7h0a7,7,0,0,1-8.7-4.59h0a7,7,0,0,1,4.59-8.7h0a7,7,0,0,1,8.7,4.59Z" transform="translate(-68.22 -219.98)"/><path class="cls-1" d="M152.82,254.47a11.17,11.17,0,1,1,7.36-14A11.19,11.19,0,0,1,152.82,254.47Zm-4.11-13.28a2.74,2.74,0,1,0,3.42,1.8A2.73,2.73,0,0,0,148.71,241.19Z" transform="translate(-68.22 -219.98)"/></svg>